<mxfile host="app.diagrams.net" agent="Mozilla/5.0 (Windows NT 10.0; Win64; x64) AppleWebKit/537.36 (KHTML, like Gecko) Chrome/130.0.0.0 Safari/537.36" version="24.8.6">
  <diagram id="Ht1M8jgEwFfnCIfOTk4-" name="Page-1">
    <mxGraphModel dx="2333" dy="1987" grid="0" gridSize="10" guides="1" tooltips="1" connect="1" arrows="1" fold="1" page="1" pageScale="1" pageWidth="1169" pageHeight="827" background="#FFCCFF" math="0" shadow="0">
      <root>
        <mxCell id="0" />
        <mxCell id="1" parent="0" />
        <mxCell id="_X6kVFaS-KWYFm75VmPG-21" value="" style="edgeStyle=orthogonalEdgeStyle;html=1;endArrow=block;elbow=vertical;startArrow=block;startFill=1;endFill=1;strokeColor=#005700;rounded=0;fontSize=12;startSize=8;endSize=8;flowAnimation=1;fillColor=#008a00;" parent="1" edge="1">
          <mxGeometry width="100" relative="1" as="geometry">
            <mxPoint x="332" y="-680" as="sourcePoint" />
            <mxPoint x="330" y="-220" as="targetPoint" />
            <Array as="points">
              <mxPoint x="420" y="-680" />
              <mxPoint x="420" y="-220" />
              <mxPoint x="332" y="-220" />
            </Array>
          </mxGeometry>
        </mxCell>
        <mxCell id="_X6kVFaS-KWYFm75VmPG-24" value="XMPP" style="text;html=1;align=center;verticalAlign=middle;resizable=0;points=[];autosize=1;strokeColor=none;fillColor=none;fontSize=16;" parent="1" vertex="1">
          <mxGeometry x="345" y="-709.5" width="70" height="30" as="geometry" />
        </mxCell>
        <mxCell id="_X6kVFaS-KWYFm75VmPG-25" value="HTTP" style="text;html=1;align=center;verticalAlign=middle;resizable=0;points=[];autosize=1;strokeColor=none;fillColor=none;fontSize=16;" parent="1" vertex="1">
          <mxGeometry x="340" y="-647" width="70" height="30" as="geometry" />
        </mxCell>
        <mxCell id="_X6kVFaS-KWYFm75VmPG-26" value="XMPP" style="text;html=1;align=center;verticalAlign=middle;resizable=0;points=[];autosize=1;strokeColor=none;fillColor=none;fontSize=16;" parent="1" vertex="1">
          <mxGeometry x="335" y="-247" width="70" height="30" as="geometry" />
        </mxCell>
        <mxCell id="_X6kVFaS-KWYFm75VmPG-27" value="HTTP" style="text;html=1;align=center;verticalAlign=middle;resizable=0;points=[];autosize=1;strokeColor=none;fillColor=none;fontSize=16;" parent="1" vertex="1">
          <mxGeometry x="334" y="-205" width="70" height="30" as="geometry" />
        </mxCell>
        <mxCell id="_X6kVFaS-KWYFm75VmPG-30" value="" style="edgeStyle=orthogonalEdgeStyle;html=1;endArrow=block;elbow=vertical;startArrow=block;startFill=1;endFill=1;strokeColor=#6F0000;rounded=0;fontSize=12;startSize=8;endSize=8;flowAnimation=1;fillColor=#a20025;" parent="1" edge="1">
          <mxGeometry width="100" relative="1" as="geometry">
            <mxPoint x="332" y="-619" as="sourcePoint" />
            <mxPoint x="330" y="-180" as="targetPoint" />
            <Array as="points">
              <mxPoint x="460" y="-619" />
              <mxPoint x="460" y="-180" />
              <mxPoint x="332" y="-180" />
            </Array>
          </mxGeometry>
        </mxCell>
        <mxCell id="_X6kVFaS-KWYFm75VmPG-31" value="" style="edgeStyle=orthogonalEdgeStyle;html=1;endArrow=block;elbow=vertical;startArrow=none;endFill=1;rounded=0;fontSize=12;startSize=8;endSize=8;curved=1;flowAnimation=1;fillColor=#008a00;strokeColor=#005700;" parent="1" edge="1">
          <mxGeometry width="100" relative="1" as="geometry">
            <mxPoint x="420" y="-660" as="sourcePoint" />
            <mxPoint x="670" y="-660" as="targetPoint" />
          </mxGeometry>
        </mxCell>
        <mxCell id="_X6kVFaS-KWYFm75VmPG-35" value="Custom Ejabberd Server Cluster" style="text;html=1;align=center;verticalAlign=middle;resizable=0;points=[];autosize=1;strokeColor=none;fillColor=none;fontSize=16;" parent="1" vertex="1">
          <mxGeometry x="599" y="-610" width="250" height="30" as="geometry" />
        </mxCell>
        <mxCell id="_X6kVFaS-KWYFm75VmPG-37" value="" style="image;aspect=fixed;perimeter=ellipsePerimeter;html=1;align=center;shadow=0;dashed=0;spacingTop=3;image=img/lib/active_directory/cluster_server.svg;" parent="1" vertex="1">
          <mxGeometry x="676" y="-716" width="91" height="91" as="geometry" />
        </mxCell>
        <mxCell id="_X6kVFaS-KWYFm75VmPG-39" value="" style="html=1;endArrow=block;elbow=vertical;startArrow=none;endFill=1;rounded=0;fontSize=12;startSize=8;endSize=8;flowAnimation=1;fillColor=#a20025;strokeColor=#6F0000;" parent="1" edge="1">
          <mxGeometry width="100" relative="1" as="geometry">
            <mxPoint x="461" y="-256" as="sourcePoint" />
            <mxPoint x="600" y="-256" as="targetPoint" />
          </mxGeometry>
        </mxCell>
        <mxCell id="_X6kVFaS-KWYFm75VmPG-43" value="" style="image;html=1;image=img/lib/clip_art/computers/Server_128x128.png" parent="1" vertex="1">
          <mxGeometry x="604" y="-318" width="130" height="113" as="geometry" />
        </mxCell>
        <mxCell id="_X6kVFaS-KWYFm75VmPG-44" value="YAWS Server" style="text;html=1;align=center;verticalAlign=middle;resizable=0;points=[];autosize=1;strokeColor=none;fillColor=none;fontSize=16;" parent="1" vertex="1">
          <mxGeometry x="599" y="-224" width="120" height="30" as="geometry" />
        </mxCell>
        <mxCell id="_X6kVFaS-KWYFm75VmPG-46" value="" style="edgeStyle=orthogonalEdgeStyle;html=1;endArrow=block;startArrow=block;startFill=1;endFill=1;strokeColor=#6F0000;rounded=0;fontSize=12;startSize=8;endSize=8;flowAnimation=1;fillColor=#a20025;" parent="1" edge="1">
          <mxGeometry width="100" relative="1" as="geometry">
            <mxPoint x="330" y="-140" as="sourcePoint" />
            <mxPoint x="740" y="-259" as="targetPoint" />
            <Array as="points">
              <mxPoint x="330" y="-140" />
              <mxPoint x="830" y="-140" />
              <mxPoint x="830" y="-259" />
            </Array>
          </mxGeometry>
        </mxCell>
        <mxCell id="_X6kVFaS-KWYFm75VmPG-47" value="HTTP" style="text;html=1;align=center;verticalAlign=middle;resizable=0;points=[];autosize=1;strokeColor=none;fillColor=none;fontSize=16;" parent="1" vertex="1">
          <mxGeometry x="335" y="-167" width="70" height="30" as="geometry" />
        </mxCell>
        <mxCell id="_X6kVFaS-KWYFm75VmPG-49" value="" style="points=[];aspect=fixed;html=1;align=center;shadow=0;dashed=0;fillColor=#FF6A00;strokeColor=none;shape=mxgraph.alibaba_cloud.cdn_content_distribution_network;" parent="1" vertex="1">
          <mxGeometry x="1200" y="-240" width="100.08" height="83" as="geometry" />
        </mxCell>
        <mxCell id="_X6kVFaS-KWYFm75VmPG-50" value="" style="html=1;endArrow=block;elbow=vertical;startArrow=none;endFill=1;strokeColor=#6F0000;rounded=0;fontSize=12;startSize=8;endSize=8;flowAnimation=1;fillColor=#a20025;" parent="1" edge="1">
          <mxGeometry width="100" relative="1" as="geometry">
            <mxPoint x="830" y="-202" as="sourcePoint" />
            <mxPoint x="1200" y="-202" as="targetPoint" />
          </mxGeometry>
        </mxCell>
        <mxCell id="_X6kVFaS-KWYFm75VmPG-51" value="Media Storage CDN" style="text;html=1;align=center;verticalAlign=middle;resizable=0;points=[];autosize=1;strokeColor=none;fillColor=none;fontSize=16;" parent="1" vertex="1">
          <mxGeometry x="1165.04" y="-150" width="170" height="30" as="geometry" />
        </mxCell>
        <mxCell id="_X6kVFaS-KWYFm75VmPG-54" value="" style="html=1;endArrow=block;elbow=vertical;startArrow=none;endFill=1;strokeColor=#005700;rounded=0;fontSize=12;startSize=8;endSize=8;fillColor=#008a00;flowAnimation=1;" parent="1" edge="1">
          <mxGeometry width="100" relative="1" as="geometry">
            <mxPoint x="778" y="-651" as="sourcePoint" />
            <mxPoint x="1360" y="-440" as="targetPoint" />
            <Array as="points">
              <mxPoint x="1360" y="-651" />
            </Array>
          </mxGeometry>
        </mxCell>
        <mxCell id="_X6kVFaS-KWYFm75VmPG-105" value="Write only Message Archive" style="edgeLabel;html=1;align=center;verticalAlign=middle;resizable=0;points=[];fontSize=16;labelBackgroundColor=#FFCCFF;" parent="_X6kVFaS-KWYFm75VmPG-54" vertex="1" connectable="0">
          <mxGeometry x="0.744" y="-1" relative="1" as="geometry">
            <mxPoint y="9" as="offset" />
          </mxGeometry>
        </mxCell>
        <mxCell id="_X6kVFaS-KWYFm75VmPG-56" value="" style="sketch=0;html=1;aspect=fixed;strokeColor=none;shadow=0;fillColor=#3B8DF1;verticalAlign=top;labelPosition=center;verticalLabelPosition=bottom;shape=mxgraph.gcp2.cloud_messaging" parent="1" vertex="1">
          <mxGeometry x="1540" y="-351" width="140.63" height="90" as="geometry" />
        </mxCell>
        <mxCell id="_X6kVFaS-KWYFm75VmPG-62" value="" style="html=1;endArrow=block;elbow=vertical;startArrow=none;endFill=1;strokeColor=#005700;rounded=0;fontSize=12;flowAnimation=1;fillColor=#008a00;" parent="1" edge="1">
          <mxGeometry width="100" relative="1" as="geometry">
            <mxPoint x="778" y="-675" as="sourcePoint" />
            <mxPoint x="1600" y="-350" as="targetPoint" />
            <Array as="points">
              <mxPoint x="1600" y="-675" />
            </Array>
          </mxGeometry>
        </mxCell>
        <mxCell id="_X6kVFaS-KWYFm75VmPG-65" value="Offline Users" style="edgeLabel;html=1;align=center;verticalAlign=middle;resizable=0;points=[];fontSize=16;labelBackgroundColor=#FFCCFF;" parent="_X6kVFaS-KWYFm75VmPG-62" vertex="1" connectable="0">
          <mxGeometry x="0.7534" y="2" relative="1" as="geometry">
            <mxPoint x="-5" y="28" as="offset" />
          </mxGeometry>
        </mxCell>
        <mxCell id="_X6kVFaS-KWYFm75VmPG-64" value="GCM / APNS" style="text;html=1;align=center;verticalAlign=middle;resizable=0;points=[];autosize=1;strokeColor=none;fillColor=none;fontSize=16;strokeWidth=1;" parent="1" vertex="1">
          <mxGeometry x="1553" y="-258" width="120" height="30" as="geometry" />
        </mxCell>
        <mxCell id="_X6kVFaS-KWYFm75VmPG-7" value="" style="image;html=1;image=img/lib/clip_art/computers/Database_128x128.png" parent="1" vertex="1">
          <mxGeometry x="58" y="-221" width="80" height="80" as="geometry" />
        </mxCell>
        <mxCell id="_X6kVFaS-KWYFm75VmPG-8" value="" style="edgeStyle=orthogonalEdgeStyle;html=1;endArrow=block;elbow=vertical;startArrow=block;startFill=1;endFill=1;strokeColor=#314354;rounded=0;fontSize=12;startSize=8;endSize=8;curved=1;flowAnimation=1;fillColor=#647687;" parent="1" edge="1">
          <mxGeometry width="100" relative="1" as="geometry">
            <mxPoint x="138" y="-178.5" as="sourcePoint" />
            <mxPoint x="238" y="-178.5" as="targetPoint" />
          </mxGeometry>
        </mxCell>
        <mxCell id="_X6kVFaS-KWYFm75VmPG-9" value="" style="verticalLabelPosition=bottom;verticalAlign=top;html=1;shadow=0;dashed=0;strokeWidth=1;shape=mxgraph.android.phone2;" parent="1" vertex="1">
          <mxGeometry x="250" y="-250" width="70" height="138" as="geometry" />
        </mxCell>
        <mxCell id="_X6kVFaS-KWYFm75VmPG-10" value="Local SQLite DB" style="text;html=1;align=center;verticalAlign=middle;whiteSpace=wrap;rounded=0;fontSize=16;" parent="1" vertex="1">
          <mxGeometry x="38" y="-138.5" width="130" height="30" as="geometry" />
        </mxCell>
        <mxCell id="_X6kVFaS-KWYFm75VmPG-11" value="Mobile Users" style="text;html=1;align=center;verticalAlign=middle;whiteSpace=wrap;rounded=0;fontSize=16;" parent="1" vertex="1">
          <mxGeometry x="220" y="-105.5" width="120" height="30" as="geometry" />
        </mxCell>
        <mxCell id="_X6kVFaS-KWYFm75VmPG-63" value="" style="html=1;endArrow=none;elbow=vertical;startArrow=block;startFill=1;strokeColor=#005700;rounded=0;fontSize=12;startSize=8;endSize=8;flowAnimation=1;fillColor=#008a00;entryX=0.463;entryY=1.028;entryDx=0;entryDy=0;entryPerimeter=0;" parent="1" target="_X6kVFaS-KWYFm75VmPG-64" edge="1">
          <mxGeometry width="100" relative="1" as="geometry">
            <mxPoint x="327" y="-98" as="sourcePoint" />
            <mxPoint x="1610" y="-220" as="targetPoint" />
            <Array as="points">
              <mxPoint x="1610" y="-100" />
            </Array>
          </mxGeometry>
        </mxCell>
        <mxCell id="_X6kVFaS-KWYFm75VmPG-91" value="" style="image;html=1;image=img/lib/clip_art/computers/Database_128x128.png" parent="1" vertex="1">
          <mxGeometry x="1850" y="-734.5" width="80" height="80" as="geometry" />
        </mxCell>
        <mxCell id="_X6kVFaS-KWYFm75VmPG-92" value="" style="image;html=1;image=img/lib/clip_art/computers/Database_128x128.png" parent="1" vertex="1">
          <mxGeometry x="1062" y="-430" width="80" height="80" as="geometry" />
        </mxCell>
        <mxCell id="_X6kVFaS-KWYFm75VmPG-93" value="" style="image;html=1;image=img/lib/clip_art/computers/Database_128x128.png" parent="1" vertex="1">
          <mxGeometry x="1320" y="-430" width="80" height="80" as="geometry" />
        </mxCell>
        <mxCell id="_X6kVFaS-KWYFm75VmPG-94" value="Mnesia DB Cluster" style="text;html=1;align=center;verticalAlign=middle;resizable=0;points=[];autosize=1;strokeColor=none;fillColor=none;fontSize=16;" parent="1" vertex="1">
          <mxGeometry x="1808" y="-652" width="160" height="30" as="geometry" />
        </mxCell>
        <mxCell id="_X6kVFaS-KWYFm75VmPG-97" value="" style="html=1;endArrow=block;elbow=vertical;startArrow=block;startFill=1;endFill=1;strokeColor=#005700;rounded=0;fontSize=12;startSize=8;endSize=8;fillColor=#008a00;flowAnimation=1;" parent="1" edge="1">
          <mxGeometry width="100" relative="1" as="geometry">
            <mxPoint x="775" y="-700" as="sourcePoint" />
            <mxPoint x="1841.3334147135417" y="-700" as="targetPoint" />
          </mxGeometry>
        </mxCell>
        <mxCell id="_X6kVFaS-KWYFm75VmPG-98" value="" style="html=1;endArrow=block;elbow=vertical;startArrow=none;endFill=1;strokeColor=#005700;rounded=0;fontSize=12;startSize=8;endSize=8;fillColor=#008a00;flowAnimation=1;" parent="1" edge="1">
          <mxGeometry width="100" relative="1" as="geometry">
            <mxPoint x="1100" y="-650" as="sourcePoint" />
            <mxPoint x="1100" y="-440" as="targetPoint" />
          </mxGeometry>
        </mxCell>
        <mxCell id="_X6kVFaS-KWYFm75VmPG-104" value="Media data / Profile / Contacts" style="edgeLabel;html=1;align=center;verticalAlign=middle;resizable=0;points=[];fontSize=16;labelBackgroundColor=#FFCCFF;" parent="_X6kVFaS-KWYFm75VmPG-98" vertex="1" connectable="0">
          <mxGeometry x="0.116" y="-3" relative="1" as="geometry">
            <mxPoint x="2" y="1" as="offset" />
          </mxGeometry>
        </mxCell>
        <mxCell id="_X6kVFaS-KWYFm75VmPG-99" value="" style="edgeStyle=orthogonalEdgeStyle;html=1;endArrow=block;elbow=vertical;startArrow=block;startFill=1;endFill=1;strokeColor=#001DBC;rounded=0;fontSize=12;startSize=8;endSize=8;entryX=0;entryY=0.5;entryDx=0;entryDy=0;flowAnimation=1;fillColor=#0050ef;" parent="1" target="_X6kVFaS-KWYFm75VmPG-92" edge="1">
          <mxGeometry width="100" relative="1" as="geometry">
            <mxPoint x="740" y="-300" as="sourcePoint" />
            <mxPoint x="850" y="-400" as="targetPoint" />
          </mxGeometry>
        </mxCell>
        <mxCell id="_X6kVFaS-KWYFm75VmPG-100" value="MySQL or Postgress" style="text;html=1;align=center;verticalAlign=middle;resizable=0;points=[];autosize=1;strokeColor=none;fillColor=none;fontSize=16;" parent="1" vertex="1">
          <mxGeometry x="1012" y="-346" width="170" height="30" as="geometry" />
        </mxCell>
        <mxCell id="_X6kVFaS-KWYFm75VmPG-103" value="Riak" style="text;html=1;align=center;verticalAlign=middle;resizable=0;points=[];autosize=1;strokeColor=none;fillColor=none;fontSize=16;" parent="1" vertex="1">
          <mxGeometry x="1329" y="-347" width="60" height="30" as="geometry" />
        </mxCell>
        <mxCell id="Mzy8vlkz-HstG0ntQxXo-2" value="" style="image;html=1;image=img/lib/clip_art/computers/Database_128x128.png" parent="1" vertex="1">
          <mxGeometry x="58" y="-691" width="80" height="80" as="geometry" />
        </mxCell>
        <mxCell id="Mzy8vlkz-HstG0ntQxXo-4" value="" style="edgeStyle=orthogonalEdgeStyle;html=1;endArrow=block;elbow=vertical;startArrow=block;startFill=1;endFill=1;strokeColor=#314354;rounded=0;fontSize=12;startSize=8;endSize=8;curved=1;flowAnimation=1;fillColor=#647687;" parent="1" edge="1">
          <mxGeometry width="100" relative="1" as="geometry">
            <mxPoint x="138" y="-648.5" as="sourcePoint" />
            <mxPoint x="238" y="-648.5" as="targetPoint" />
          </mxGeometry>
        </mxCell>
        <mxCell id="_X6kVFaS-KWYFm75VmPG-1" value="" style="verticalLabelPosition=bottom;verticalAlign=top;html=1;shadow=0;dashed=0;strokeWidth=1;shape=mxgraph.android.phone2;" parent="1" vertex="1">
          <mxGeometry x="250" y="-720" width="70" height="138" as="geometry" />
        </mxCell>
        <mxCell id="_X6kVFaS-KWYFm75VmPG-5" value="Local SQLite DB" style="text;html=1;align=center;verticalAlign=middle;whiteSpace=wrap;rounded=0;fontSize=16;" parent="1" vertex="1">
          <mxGeometry x="38" y="-608.5" width="130" height="30" as="geometry" />
        </mxCell>
        <mxCell id="_X6kVFaS-KWYFm75VmPG-6" value="Mobile Users" style="text;html=1;align=center;verticalAlign=middle;whiteSpace=wrap;rounded=0;fontSize=16;" parent="1" vertex="1">
          <mxGeometry x="225" y="-578.5" width="120" height="30" as="geometry" />
        </mxCell>
        <mxCell id="_X6kVFaS-KWYFm75VmPG-106" value="" style="whiteSpace=wrap;html=1;fillColor=#000000;" parent="1" vertex="1">
          <mxGeometry x="253" y="-708" width="64" height="113" as="geometry" />
        </mxCell>
        <mxCell id="_X6kVFaS-KWYFm75VmPG-107" value="" style="whiteSpace=wrap;html=1;fillColor=#000000;" parent="1" vertex="1">
          <mxGeometry x="253" y="-237.5" width="64" height="113" as="geometry" />
        </mxCell>
        <mxCell id="hNmUEJal4Xya0sNj4hiR-1" value="&lt;h1 style=&quot;margin-top: 0px;&quot;&gt;&lt;font style=&quot;font-size: 40px;&quot;&gt;&lt;u&gt;Whatsapp Architecture&lt;/u&gt;&lt;/font&gt;&lt;/h1&gt;" style="text;html=1;whiteSpace=wrap;overflow=hidden;rounded=0;" vertex="1" parent="1">
          <mxGeometry x="648" y="-820" width="458" height="61" as="geometry" />
        </mxCell>
      </root>
    </mxGraphModel>
  </diagram>
</mxfile>
